<svg xmlns="http://www.w3.org/2000/svg" viewBox="0 0 64 64">
  <defs>
    <linearGradient id="g" x1="0" y1="0" x2="1" y2="1">
      <stop offset="0%" stop-color="#6AE3FF"/>
      <stop offset="100%" stop-color="#7A5CFF"/>
    </linearGradient>
    <filter id="shadow" x="-20%" y="-20%" width="140%" height="140%">
      <feDropShadow dx="0" dy="1.5" stdDeviation="1.5" flood-color="#000" flood-opacity=".25"/>
    </filter>
  </defs>
  <rect width="64" height="64" rx="14" fill="#0b1020"/>
  <g filter="url(#shadow)">
    <path d="M32 6 L50 20 L44 46 L20 46 L14 20 Z" fill="url(#g)"/>
    <path d="M32 10 L46 21 L41 42 L23 42 L18 21 Z" fill="none" stroke="rgba(255,255,255,.35)" stroke-width="1.6"/>
  </g>
  <g transform="translate(20,16)">
    <path d="M0 32 V4 h7.5 c4.2 0 7.5 3.3 7.5 7.5 c0 2.9 -1.7 5.6 -4.4 6.9 L24 32 h-7.2 L13 21.8 H7.5 V32 Z M7.5 10.5 v6.8 h2.5 c2 0 3.5 -1.5 3.5 -3.4 c0 -1.9 -1.5 -3.4 -3.5 -3.4 Z"
          fill="#ffffff"/>
  </g>
</svg>
